<?xml version="1.0" encoding="UTF-8"?>
<svg width="400px" height="3px" viewBox="0 0 400 3" version="1.1" xmlns="http://www.w3.org/2000/svg" xmlns:xlink="http://www.w3.org/1999/xlink">
    <!-- Generator: Sketch 51.3 (57544) - http://www.bohemiancoding.com/sketch -->
    <title>lgline</title>
    <desc>Created with Sketch.</desc>
    <defs></defs>
    <g id="Site-Final" stroke="none" stroke-width="1" fill="none" fill-rule="evenodd">
        <g id="Homepage" transform="translate(-520.000000, -996.000000)" fill-rule="nonzero">
            <g id="Mission" transform="translate(0.000000, 600.000000)">
                <g id="lgline" transform="translate(520.000000, 396.000000)">
                    <rect id="Rectangle-path" fill="#097666" x="219.428571" y="0" width="24.3809524" height="3"></rect>
                    <rect id="Rectangle-path" fill="#D31D20" x="243.809524" y="0" width="3.04761905" height="3"></rect>
                    <rect id="Rectangle-path" fill="#EAFFFF" x="246.857143" y="0" width="3.04761905" height="3"></rect>
                    <rect id="Rectangle-path" fill="#0D8B77" x="249.142857" y="0" width="3.80952381" height="3"></rect>
                    <rect id="Rectangle-path" fill="#172225" x="252.190476" y="0" width="6.0952381" height="3"></rect>
                    <rect id="Rectangle-path" fill="#18302C" x="258.285714" y="0" width="1.52380952" height="3"></rect>
                    <rect id="Rectangle-path" fill="#0F0F12" x="259.809524" y="0" width="2.28571429" height="3"></rect>
                    <rect id="Rectangle-path" fill="#1C4649" x="262.857143" y="0" width="3.04761905" height="3"></rect>
                    <rect id="Rectangle-path" fill="#07120A" x="265.142857" y="0" width="2.28571429" height="3"></rect>
                    <rect id="Rectangle-path" fill="#104343" x="267.428571" y="0" width="2.28571429" height="3"></rect>
                    <rect id="Rectangle-path" fill="#03191A" x="268.190476" y="0" width="1.52380952" height="3"></rect>
                    <rect id="Rectangle-path" fill="#01342B" x="269.714286" y="0" width="3.04761905" height="3"></rect>
                    <rect id="Rectangle-path" fill="#4A8F80" x="272.761905" y="0" width="1.52380952" height="3"></rect>
                    <rect id="Rectangle-path" fill="#16282A" x="274.285714" y="0" width="2.28571429" height="3"></rect>
                    <rect id="Rectangle-path" fill="#36D2A6" x="277.333333" y="0" width="2.28571429" height="3"></rect>
                    <rect id="Rectangle-path" fill="#002D23" x="278.857143" y="0" width="2.28571429" height="3"></rect>
                    <rect id="Rectangle-path" fill="#14BB93" x="279.619048" y="0" width="2.28571429" height="3"></rect>
                    <rect id="Rectangle-path" fill="#004233" x="281.904762" y="0" width="2.28571429" height="3"></rect>
                    <rect id="Rectangle-path" fill="#26B189" x="284.190476" y="0" width="3.04761905" height="3"></rect>
                    <rect id="Rectangle-path" fill="#7ABB66" x="287.238095" y="0" width="1.52380952" height="3"></rect>
                    <rect id="Rectangle-path" fill="#1BB999" x="289.52381" y="0" width="2.28571429" height="3"></rect>
                    <rect id="Rectangle-path" fill="#9ACE76" x="290.285714" y="0" width="1.52380952" height="3"></rect>
                    <rect id="Rectangle-path" fill="#27B988" x="291.809524" y="0" width="2.28571429" height="3"></rect>
                    <rect id="Rectangle-path" fill="#A7C75D" x="294.095238" y="0" width="2.28571429" height="3"></rect>
                    <rect id="Rectangle-path" fill="#70C38F" x="296.380952" y="0" width="1.52380952" height="3"></rect>
                    <rect id="Rectangle-path" fill="#B0C65D" x="297.904762" y="0" width="2.28571429" height="3"></rect>
                    <rect id="Rectangle-path" fill="#D7D983" x="299.428571" y="0" width="2.28571429" height="3"></rect>
                    <rect id="Rectangle-path" fill="#9CC262" x="301.714286" y="0" width="2.28571429" height="3"></rect>
                    <rect id="Rectangle-path" fill="#E2E087" x="303.238095" y="0" width="2.28571429" height="3"></rect>
                    <rect id="Rectangle-path" fill="#99B351" x="305.52381" y="0" width="2.28571429" height="3"></rect>
                    <rect id="Rectangle-path" fill="#DCD780" x="307.809524" y="0" width="3.04761905" height="3"></rect>
                    <rect id="Rectangle-path" fill="#B3C364" x="310.857143" y="0" width="1.52380952" height="3"></rect>
                    <rect id="Rectangle-path" fill="#DCE085" x="311.619048" y="0" width="5.33333333" height="3"></rect>
                    <rect id="Rectangle-path" fill="#111D1F" x="316.190476" y="0" width="3.04761905" height="3"></rect>
                    <rect id="Rectangle-path" fill="#F6B5CF" x="319.238095" y="0" width="3.80952381" height="3"></rect>
                    <rect id="Rectangle-path" fill="#E14F85" x="323.047619" y="0" width="1.52380952" height="3"></rect>
                    <rect id="Rectangle-path" fill="#F8A8CB" x="324.571429" y="0" width="3.04761905" height="3"></rect>
                    <rect id="Rectangle-path" fill="#F02E78" x="326.857143" y="0" width="1.52380952" height="3"></rect>
                    <rect id="Rectangle-path" fill="#EEA6C7" x="328.380952" y="0" width="2.28571429" height="3"></rect>
                    <rect id="Rectangle-path" fill="#E93B7E" x="330.666667" y="0" width="2.28571429" height="3"></rect>
                    <rect id="Rectangle-path" fill="#F85CA2" x="332.190476" y="0" width="2.28571429" height="3"></rect>
                    <rect id="Rectangle-path" fill="#FF3584" x="334.47619" y="0" width="3.04761905" height="3"></rect>
                    <rect id="Rectangle-path" fill="#CB0E33" x="336.761905" y="0" width="1.52380952" height="3"></rect>
                    <rect id="Rectangle-path" fill="#F83580" x="338.285714" y="0" width="3.04761905" height="3"></rect>
                    <rect id="Rectangle-path" fill="#C50D16" x="341.333333" y="0" width="2.28571429" height="3"></rect>
                    <rect id="Rectangle-path" fill="#F22D81" x="342.095238" y="0" width="3.04761905" height="3"></rect>
                    <rect id="Rectangle-path" fill="#D41C22" x="345.142857" y="0" width="3.04761905" height="3"></rect>
                    <rect id="Rectangle-path" fill="#F73969" x="348.190476" y="0" width="1.52380952" height="3"></rect>
                    <rect id="Rectangle-path" fill="#D11D1B" x="348.952381" y="0" width="3.80952381" height="3"></rect>
                    <rect id="Rectangle-path" fill="#8D1215" x="352" y="0" width="1.52380952" height="3"></rect>
                    <rect id="Rectangle-path" fill="#D51825" x="352.761905" y="0" width="3.04761905" height="3"></rect>
                    <rect id="Rectangle-path" fill="#6B1A26" x="355.809524" y="0" width="2.28571429" height="3"></rect>
                    <rect id="Rectangle-path" fill="#C21A1D" x="358.095238" y="0" width="2.28571429" height="3"></rect>
                    <rect id="Rectangle-path" fill="#6B2335" x="359.619048" y="0" width="3.04761905" height="3"></rect>
                    <rect id="Rectangle-path" fill="#9C1C27" x="362.666667" y="0" width="2.28571429" height="3"></rect>
                    <rect id="Rectangle-path" fill="#651523" x="364.190476" y="0" width="3.04761905" height="3"></rect>
                    <rect id="Rectangle-path" fill="#000A0F" x="367.238095" y="0" width="3.04761905" height="3"></rect>
                    <rect id="Rectangle-path" fill="#6E2434" x="369.52381" y="0" width="2.28571429" height="3"></rect>
                    <rect id="Rectangle-path" fill="#101411" x="371.809524" y="0" width="3.04761905" height="3"></rect>
                    <rect id="Rectangle-path" fill="#521A1A" x="373.333333" y="0" width="1.52380952" height="3"></rect>
                    <rect id="Rectangle-path" fill="#17231D" x="375.619048" y="0" width="3.04761905" height="3"></rect>
                    <rect id="Rectangle-path" fill="#391719" x="378.666667" y="0" width="1.52380952" height="3"></rect>
                    <rect id="Rectangle-path" fill="#1B130C" x="380.190476" y="0" width="5.33333333" height="3"></rect>
                    <rect id="Rectangle-path" fill="#F5462B" x="384.761905" y="0" width="3.80952381" height="3"></rect>
                    <rect id="Rectangle-path" fill="#E3E5F3" x="387.809524" y="0" width="3.80952381" height="3"></rect>
                    <rect id="Rectangle-path" fill="#157875" x="391.619048" y="0" width="3.80952381" height="3"></rect>
                    <rect id="Rectangle-path" fill="#F64D40" x="394.666667" y="0" width="4.57142857" height="3"></rect>
                    <rect id="Rectangle-path" fill="#A067E1" x="398.47619" y="0" width="1.52380952" height="3"></rect>
                    <rect id="Rectangle-path" fill="#D51E28" x="0" y="0" width="3.04761905" height="3"></rect>
                    <rect id="Rectangle-path" fill="#62222A" x="3.04761905" y="0" width="3.80952381" height="3"></rect>
                    <rect id="Rectangle-path" fill="#1B0C14" x="5.33333333" y="0" width="4.57142857" height="3"></rect>
                    <rect id="Rectangle-path" fill="#077968" x="9.9047619" y="0" width="24.3809524" height="3"></rect>
                    <rect id="Rectangle-path" fill="#E02332" x="33.5238095" y="0" width="3.80952381" height="3"></rect>
                    <rect id="Rectangle-path" fill="#E8F4FF" x="37.3333333" y="0" width="3.04761905" height="3"></rect>
                    <rect id="Rectangle-path" fill="#0F8479" x="39.6190476" y="0" width="3.80952381" height="3"></rect>
                    <rect id="Rectangle-path" fill="#0E1719" x="42.6666667" y="0" width="6.0952381" height="3"></rect>
                    <rect id="Rectangle-path" fill="#2C3E3D" x="48.7619048" y="0" width="1.52380952" height="3"></rect>
                    <rect id="Rectangle-path" fill="#0B1717" x="50.2857143" y="0" width="3.04761905" height="3"></rect>
                    <rect id="Rectangle-path" fill="#124940" x="52.5714286" y="0" width="3.04761905" height="3"></rect>
                    <rect id="Rectangle-path" fill="#001514" x="54.8571429" y="0" width="1.52380952" height="3"></rect>
                    <rect id="Rectangle-path" fill="#163E39" x="57.1428571" y="0" width="3.04761905" height="3"></rect>
                    <rect id="Rectangle-path" fill="#081A1C" x="58.6666667" y="0" width="1.52380952" height="3"></rect>
                    <rect id="Rectangle-path" fill="#0B473B" x="60.1904762" y="0" width="3.04761905" height="3"></rect>
                    <rect id="Rectangle-path" fill="#3D9A83" x="62.4761905" y="0" width="2.28571429" height="3"></rect>
                    <rect id="Rectangle-path" fill="#002921" x="64.7619048" y="0" width="2.28571429" height="3"></rect>
                    <rect id="Rectangle-path" fill="#38CFA4" x="67.047619" y="0" width="2.28571429" height="3"></rect>
                    <rect id="Rectangle-path" fill="#00251B" x="68.5714286" y="0" width="1.52380952" height="3"></rect>
                    <rect id="Rectangle-path" fill="#04A174" x="70.0952381" y="0" width="3.04761905" height="3"></rect>
                    <rect id="Rectangle-path" fill="#00372C" x="73.1428571" y="0" width="1.52380952" height="3"></rect>
                    <rect id="Rectangle-path" fill="#2BB894" x="73.9047619" y="0" width="3.80952381" height="3"></rect>
                    <rect id="Rectangle-path" fill="#7EC073" x="77.7142857" y="0" width="1.52380952" height="3"></rect>
                    <rect id="Rectangle-path" fill="#2CC29D" x="78.4761905" y="0" width="2.28571429" height="3"></rect>
                    <rect id="Rectangle-path" fill="#6EB366" x="80.7619048" y="0" width="2.28571429" height="3"></rect>
                    <rect id="Rectangle-path" fill="#31BA9C" x="83.047619" y="0" width="1.52380952" height="3"></rect>
                    <rect id="Rectangle-path" fill="#AAC555" x="83.8095238" y="0" width="2.28571429" height="3"></rect>
                    <rect id="Rectangle-path" fill="#44A872" x="85.3333333" y="0" width="1.52380952" height="3"></rect>
                    <rect id="Rectangle-path" fill="#DDEF88" x="87.6190476" y="0" width="4.57142857" height="3"></rect>
                    <rect id="Rectangle-path" fill="#99BF54" x="91.4285714" y="0" width="2.28571429" height="3"></rect>
                    <rect id="Rectangle-path" fill="#E0E68B" x="93.7142857" y="0" width="2.28571429" height="3"></rect>
                    <rect id="Rectangle-path" fill="#8BB143" x="96" y="0" width="2.28571429" height="3"></rect>
                    <rect id="Rectangle-path" fill="#DCDC85" x="97.5238095" y="0" width="3.04761905" height="3"></rect>
                    <rect id="Rectangle-path" fill="#A9BA5A" x="100.571429" y="0" width="1.52380952" height="3"></rect>
                    <rect id="Rectangle-path" fill="#D7DC88" x="102.095238" y="0" width="4.57142857" height="3"></rect>
                    <rect id="Rectangle-path" fill="#232C2A" x="106.666667" y="0" width="3.80952381" height="3"></rect>
                    <rect id="Rectangle-path" fill="#F9C1D7" x="109.714286" y="0" width="3.80952381" height="3"></rect>
                    <rect id="Rectangle-path" fill="#D34E87" x="112.761905" y="0" width="1.52380952" height="3"></rect>
                    <rect id="Rectangle-path" fill="#F0BFDC" x="114.285714" y="0" width="3.04761905" height="3"></rect>
                    <rect id="Rectangle-path" fill="#FF2983" x="117.333333" y="0" width="2.28571429" height="3"></rect>
                    <rect id="Rectangle-path" fill="#FFC2E5" x="118.857143" y="0" width="2.28571429" height="3"></rect>
                    <rect id="Rectangle-path" fill="#FD4787" x="120.380952" y="0" width="3.04761905" height="3"></rect>
                    <rect id="Rectangle-path" fill="#F56EAA" x="122.666667" y="0" width="1.52380952" height="3"></rect>
                    <rect id="Rectangle-path" fill="#F73077" x="124.190476" y="0" width="3.04761905" height="3"></rect>
                    <rect id="Rectangle-path" fill="#E7174D" x="127.238095" y="0" width="1.52380952" height="3"></rect>
                    <rect id="Rectangle-path" fill="#FC3A88" x="128.761905" y="0" width="3.04761905" height="3"></rect>
                    <rect id="Rectangle-path" fill="#CA051C" x="131.047619" y="0" width="1.52380952" height="3"></rect>
                    <rect id="Rectangle-path" fill="#FE378A" x="131.809524" y="0" width="3.04761905" height="3"></rect>
                    <rect id="Rectangle-path" fill="#CD1B23" x="134.857143" y="0" width="3.04761905" height="3"></rect>
                    <rect id="Rectangle-path" fill="#F32F5D" x="137.904762" y="0" width="1.52380952" height="3"></rect>
                    <rect id="Rectangle-path" fill="#C91814" x="139.428571" y="0" width="3.80952381" height="3"></rect>
                    <rect id="Rectangle-path" fill="#982935" x="142.47619" y="0" width="1.52380952" height="3"></rect>
                    <rect id="Rectangle-path" fill="#D21F20" x="143.238095" y="0" width="2.28571429" height="3"></rect>
                    <rect id="Rectangle-path" fill="#762322" x="145.52381" y="0" width="2.28571429" height="3"></rect>
                    <rect id="Rectangle-path" fill="#C10A17" x="147.809524" y="0" width="2.28571429" height="3"></rect>
                    <rect id="Rectangle-path" fill="#671731" x="150.095238" y="0" width="2.28571429" height="3"></rect>
                    <rect id="Rectangle-path" fill="#9E1C2E" x="152.380952" y="0" width="2.28571429" height="3"></rect>
                    <rect id="Rectangle-path" fill="#642133" x="153.904762" y="0" width="2.28571429" height="3"></rect>
                    <rect id="Rectangle-path" fill="#4D141F" x="156.190476" y="0" width="1.52380952" height="3"></rect>
                    <rect id="Rectangle-path" fill="#121413" x="156.952381" y="0" width="2.28571429" height="3"></rect>
                    <rect id="Rectangle-path" fill="#6F262A" x="159.238095" y="0" width="2.28571429" height="3"></rect>
                    <rect id="Rectangle-path" fill="#031307" x="162.285714" y="0" width="2.28571429" height="3"></rect>
                    <rect id="Rectangle-path" fill="#61252F" x="163.809524" y="0" width="2.28571429" height="3"></rect>
                    <rect id="Rectangle-path" fill="#0A150D" x="165.333333" y="0" width="2.28571429" height="3"></rect>
                    <rect id="Rectangle-path" fill="#3D2529" x="167.619048" y="0" width="2.28571429" height="3"></rect>
                    <rect id="Rectangle-path" fill="#18130E" x="169.904762" y="0" width="5.33333333" height="3"></rect>
                    <rect id="Rectangle-path" fill="#FF3F24" x="175.238095" y="0" width="3.04761905" height="3"></rect>
                    <rect id="Rectangle-path" fill="#E9E9F1" x="177.52381" y="0" width="3.80952381" height="3"></rect>
                    <rect id="Rectangle-path" fill="#0C7A65" x="181.333333" y="0" width="3.80952381" height="3"></rect>
                    <rect id="Rectangle-path" fill="#FE4C33" x="184.380952" y="0" width="9.9047619" height="3"></rect>
                    <rect id="Rectangle-path" fill="#E8EA8B" x="195.047619" y="0" width="6.85714286" height="3"></rect>
                    <rect id="Rectangle-path" fill="#010004" x="201.904762" y="0" width="2.28571429" height="3"></rect>
                    <rect id="Rectangle-path" fill="#CAD86D" x="204.190476" y="0" width="3.04761905" height="3"></rect>
                    <rect id="Rectangle-path" fill="#FC5644" x="206.47619" y="0" width="3.80952381" height="3"></rect>
                    <rect id="Rectangle-path" fill="#CC0B0B" x="210.285714" y="0" width="3.80952381" height="3"></rect>
                    <rect id="Rectangle-path" fill="#6A2831" x="213.333333" y="0" width="3.80952381" height="3"></rect>
                    <rect id="Rectangle-path" fill="#17161E" x="215.619048" y="0" width="3.80952381" height="3"></rect>
                </g>
            </g>
        </g>
    </g>
</svg>