<?xml version="1.0" encoding="UTF-8"?>
<svg width="150px" height="30px" viewBox="0 0 150 30" version="1.1" xmlns="http://www.w3.org/2000/svg" xmlns:xlink="http://www.w3.org/1999/xlink">
    <!-- Generator: Sketch 51.3 (57544) - http://www.bohemiancoding.com/sketch -->
    <title>amazon-logo</title>
    <desc>Created with Sketch.</desc>
    <defs></defs>
    <g id="Site-Final" stroke="none" stroke-width="1" fill="none" fill-rule="evenodd">
        <g id="Book-Page" transform="translate(-551.000000, -3693.000000)" fill="#999999">
            <g id="Also-Available-On" transform="translate(0.000000, 3576.000000)">
                <g id="amazon-logo" transform="translate(551.000000, 117.000000)">
                    <path d="M60.2870399,23.1420393 C54.6480259,27.2984394 46.4746194,29.5160291 39.4374686,29.5160291 C29.5702479,29.5160291 20.6872173,25.8665098 13.9668612,19.7966478 C13.4388644,19.3193352 13.9119477,18.6688444 14.545547,19.0405527 C21.7981212,23.2603121 30.7656367,25.798926 40.0288279,25.798926 C46.2760925,25.798926 53.1485109,24.5063852 59.4675872,21.824158 C60.4222075,21.4186537 61.2205394,22.4493068 60.2870399,23.1420393" id="path8"></path>
                    <path d="M62.6313514,20.4598121 C61.9132719,19.5389845 57.8666989,20.0247429 56.0503874,20.2401661 C55.4970437,20.3077498 55.4125668,19.826216 55.9109937,19.4798465 C59.1338927,17.2115694 64.4223192,17.8662864 65.0390206,18.6266027 C65.6557187,19.3911451 64.8785093,24.6922434 61.8499126,27.222405 C61.3852751,27.6110114 60.9417569,27.4040388 61.1487343,26.8887106 C61.8287934,25.1906704 63.3536521,21.3848642 62.6313514,20.4598121" id="path10"></path>
                    <path d="M56.1771076,3.46673426 L56.1771076,1.26181643 C56.1771076,0.928122019 56.4305463,0.70425145 56.7346726,0.70425145 L66.6061146,0.70425145 C66.9229158,0.70425145 67.1763546,0.932346509 67.1763546,1.26181643 L67.1763546,3.1499362 C67.1721334,3.46673426 66.9060195,3.88068432 66.4329314,4.53540129 L61.3176914,11.8386661 C63.2184846,11.7922047 65.2248756,12.0752085 66.9482596,13.0467251 C67.3368659,13.2663712 67.4424653,13.5873938 67.4720335,13.9041951 L67.4720335,16.2569523 C67.4720335,16.5779749 67.1172182,16.9539061 66.7455082,16.7596054 C63.7084642,15.1671628 59.674563,14.9939797 56.316498,16.7765017 C55.9743562,16.9623567 55.6153181,16.5906467 55.6153181,16.2696242 L55.6153181,14.0351381 C55.6153181,13.6761 55.6195394,13.0636199 55.9785775,12.5187267 L61.9048245,4.02007637 L56.7473444,4.02007637 C56.4305463,4.02007637 56.1771076,3.79620741 56.1771076,3.46673426" id="path12"></path>
                    <path d="M20.1676647,17.2242412 L17.1644149,17.2242412 C16.8771867,17.2031236 16.64909,16.9877004 16.6279692,16.7131392 L16.6279692,1.29983523 C16.6279692,0.991484533 16.8856324,0.746491515 17.206655,0.746491515 L20.0071534,0.746491515 C20.298611,0.759155317 20.5309273,0.983033942 20.5520497,1.26181643 L20.5520497,3.276658 L20.6069617,3.276658 C21.3377098,1.32940021 22.7105014,0.421244468 24.5606073,0.421244468 C26.440278,0.421244468 27.6145444,1.32940021 28.4593408,3.276658 C29.1858661,1.32940021 30.8374418,0.421244468 32.6072919,0.421244468 C33.8660385,0.421244468 35.2430562,0.940793878 36.0836281,2.10661289 C37.034024,3.40337497 36.83972,5.28727025 36.83972,6.93884919 L36.8354971,16.6666779 C36.8354971,16.9750286 36.5778338,17.2242412 36.2568113,17.2242412 L33.2577828,17.2242412 C32.9578827,17.2031236 32.7171158,16.9623567 32.7171158,16.6666779 L32.7171158,8.49749742 C32.7171158,7.84700494 32.776249,6.22499581 32.6326357,5.6082928 C32.4087651,4.57342009 31.7371518,4.28196251 30.86701,4.28196251 C30.1404847,4.28196251 29.3801684,4.76772084 29.0718177,5.54493512 C28.763467,6.3221478 28.7930352,7.62313115 28.7930352,8.49749742 L28.7930352,16.6666779 C28.7930352,16.9750286 28.535372,17.2242412 28.2143494,17.2242412 L25.2153242,17.2242412 C24.911198,17.2031236 24.674654,16.9623567 24.674654,16.6666779 L24.6704311,8.49749742 C24.6704311,6.77833792 24.9534349,4.24817143 22.8203269,4.24817143 C20.6618704,4.24817143 20.7463505,6.7149754 20.7463505,8.49749742 L20.7463505,16.6666779 C20.7463505,16.9750286 20.4886872,17.2242412 20.1676647,17.2242412" id="path14"></path>
                    <path d="M75.675005,0.421244468 C80.1313052,0.421244468 82.5431973,4.24817143 82.5431973,9.11419882 C82.5431973,13.8154888 79.8778632,17.5452638 75.675005,17.5452638 C71.2989588,17.5452638 68.9166317,13.7183368 68.9166317,8.94946305 C68.9166317,4.15101944 71.328527,0.421244468 75.675005,0.421244468 M75.7003471,3.56811235 C73.4869835,3.56811235 73.3475898,6.58403233 73.3475898,8.46370634 C73.3475898,10.3476016 73.3180216,14.3688309 75.675005,14.3688309 C78.0024185,14.3688309 78.1122424,11.1248159 78.1122424,9.14798829 C78.1122424,7.84700494 78.0573305,6.29257959 77.664498,5.05917519 C77.3265791,3.9862869 76.654969,3.56811235 75.7003471,3.56811235" id="path16"></path>
                    <path d="M88.3216049,17.2242412 L85.331027,17.2242412 C85.0311221,17.2031236 84.7903552,16.9623567 84.7903552,16.6666779 L84.7861339,1.24914458 C84.8114776,0.966137594 85.0606935,0.746491515 85.3648197,0.746491515 L88.148425,0.746491515 C88.4103095,0.759155317 88.6257327,0.936570999 88.6848707,1.17733792 L88.6848707,3.53431805 L88.7397794,3.53431805 C89.5803546,1.4265522 90.7588423,0.421244468 92.832817,0.421244468 C94.1802665,0.421244468 95.4939266,0.907002793 96.338723,2.23755596 C97.1243831,3.47095875 97.1243831,5.54493512 97.1243831,7.03599796 L97.1243831,16.7384861 C97.090592,17.008818 96.8413761,17.2242412 96.5457005,17.2242412 L93.5340002,17.2242412 C93.2594389,17.2031236 93.0313439,17.0003723 93.0017789,16.7384861 L93.0017789,8.36655435 C93.0017789,6.68118593 93.1960813,4.21437873 91.1221049,4.21437873 C90.3913584,4.21437873 89.7197434,4.70436316 89.386049,5.44778153 C88.9636532,6.38973158 88.9087413,7.32745553 88.9087413,8.36655435 L88.9087413,16.6666779 C88.90452,16.9750286 88.6426307,17.2242412 88.3216081,17.2242412" id="path18"></path>
                    <path d="M99.0040539,15.999289 C99.0040539,15.2220748 99.6672166,14.5969276 100.482445,14.5969276 C101.297673,14.5969276 101.960837,15.2220748 101.960837,15.999289 C101.960837,16.7722756 101.297673,17.405875 100.482445,17.405875 C99.6672166,17.405875 99.0040539,16.7722756 99.0040539,15.999289" id="path20"></path>
                    <path d="M130.823303,17.2284673 C130.510729,17.2157874 130.265738,16.9750286 130.265738,16.6709024 L130.265738,1.25759517 C130.282634,0.983033942 130.514952,0.767610741 130.802183,0.750717615 L131.904641,0.750717615 C132.208769,0.750717615 132.453759,0.970362084 132.479103,1.25759517 L132.479103,3.50475306 C133.264764,1.72223104 134.726262,0.328316971 136.572142,0.328316971 L136.686189,0.328316971 L136.796013,0.328316971 C138.755939,0.328316971 140.187869,1.77291847 140.720091,3.87223695 C141.552214,1.79826219 143.115089,0.328316971 145.176392,0.328316971 L145.281991,0.328316971 L145.404487,0.328316971 C146.86176,0.328316971 148.264122,1.26604092 148.990647,2.69374608 C149.691827,4.05809194 149.666483,5.87440344 149.666483,7.39926058 L149.662262,16.6709024 C149.666483,16.966578 149.425719,17.2073449 149.125818,17.2284673 L147.807935,17.2284673 C147.520703,17.2157874 147.288385,17.0130441 147.25037,16.7469335 L147.25037,7.39926058 C147.25037,6.29680408 147.305282,5.12675897 146.857539,4.12145124 C146.401349,3.09502427 145.526984,2.45297916 144.589262,2.40651783 C143.541714,2.45720365 142.578646,3.22174608 141.953496,4.25239753 C141.142492,5.58294909 141.17206,6.78255918 141.17206,8.33698614 L141.17206,16.7553793 C141.134045,17.008818 140.910173,17.2073449 140.635615,17.2284673 L139.326181,17.2284673 C139.013605,17.2157874 138.764391,16.9750286 138.764391,16.6709024 L138.755949,6.78255918 C138.755949,5.87440344 138.701037,4.80573641 138.282864,3.99050816 C137.797105,3.0612348 136.926965,2.45297916 136.014585,2.40651783 C135.068414,2.46142975 134.113793,3.1837305 133.547781,4.02430247 C132.817031,5.09719076 132.677641,6.42352105 132.677641,7.78786853 L132.677641,16.6709024 C132.677641,16.966578 132.436874,17.2073449 132.136971,17.2284673 L130.823312,17.2284673" id="path22"></path>
                    <path d="M121.775535,17.5494899 C117.513538,17.5494899 115.604298,13.2030119 115.604298,8.85653555 C115.604298,4.286187 117.847233,0.328316971 122.138797,0.328316971 L122.248621,0.328316971 L122.366892,0.328316971 C126.540185,0.328316971 128.618385,4.54385188 128.618385,8.89032825 C128.618385,13.4944663 126.316315,17.5494899 121.999407,17.5494899 L121.889583,17.5494899 L121.775535,17.5494899 M122.08811,15.4417241 C123.490471,15.3952579 124.597154,14.5251177 125.251872,13.076295 C125.839006,11.7753068 125.953052,10.2842407 125.953052,8.85653555 C125.953052,7.30210859 125.784094,5.68010269 125.053344,4.34954629 C124.398627,3.18795177 123.275048,2.44875789 122.083885,2.40651783 C120.757555,2.45297916 119.570617,3.35268754 118.975036,4.73815263 C118.43859,5.93776595 118.273855,7.53020365 118.273855,8.85653555 C118.273855,10.3476016 118.468157,12.0709856 119.084858,13.3677493 C119.684665,14.5969276 120.837811,15.3952579 122.08811,15.4417241" id="path24"></path>
                    <path d="M108.457321,15.3741403 C110.370786,15.3150023 111.376093,13.7816994 111.790043,11.796426 C111.874523,11.5472117 112.064602,11.3571322 112.343385,11.3571322 L113.606356,11.352911 C113.906257,11.3655748 114.180817,11.5936779 114.155473,11.8724636 C113.572563,15.2558691 111.532381,17.5494931 108.626282,17.5494931 L108.50801,17.5494931 L108.398187,17.5494931 C104.165755,17.5494931 102.340998,13.3001671 102.340998,8.98748024 C102.340998,4.70859087 104.191102,0.328320193 108.42353,0.328320193 L108.537577,0.328320193 L108.651625,0.328320193 C111.591516,0.328320193 113.686611,2.59237444 114.142801,5.97578475 C114.142801,6.22922352 113.906257,6.44886799 113.627475,6.4784362 L112.305369,6.46153985 C112.026587,6.42352427 111.844955,6.18698346 111.802714,5.92087282 C111.485916,4.03275145 110.400353,2.52901676 108.592489,2.46987873 C105.715956,2.56280623 104.896507,6.10250172 104.896507,8.82696896 C104.896507,11.4500629 105.580792,15.281216 108.457321,15.3741435" id="path26"></path>
                    <path d="M48.3078288,9.86184329 C48.3078288,11.0318852 48.337397,12.0076247 47.7460394,13.0467251 C47.26873,13.8915232 46.5084137,14.4110726 45.6678417,14.4110726 C44.5146946,14.4110726 43.8388584,13.5324818 43.8388584,12.2357198 C43.8388584,9.67598829 46.1324792,9.21135081 48.3078288,9.21135081 L48.3078288,9.86184329 M51.3364239,17.1820012 C51.1378987,17.3594088 50.8506656,17.3720807 50.626795,17.2538111 C49.6299346,16.425911 49.4483041,16.0415291 48.903411,15.2516446 C47.2560582,16.9327885 46.0860131,17.43544 43.9529035,17.43544 C41.4227386,17.43544 39.4585879,15.8767917 39.4585879,12.7552724 C39.4585879,10.3180334 40.7764722,8.6580087 42.6603675,7.84700494 C44.290824,7.12892546 46.5675469,7.00220849 48.3078288,6.80368163 L48.3078288,6.4150753 C48.3078288,5.7012203 48.3627408,4.85642385 47.9403433,4.23972567 C47.5770807,3.68638195 46.8758976,3.4582869 46.2549749,3.4582869 C45.1102735,3.4582869 44.0922972,4.04542009 43.8430796,5.26192653 C43.7923922,5.53226327 43.593867,5.7983739 43.3193057,5.81104576 L40.4089837,5.49846896 C40.1639923,5.44356026 39.8894343,5.24503018 39.9612425,4.86909893 C40.6286312,1.33785081 43.821962,0.273405048 46.6773707,0.273405048 C48.1388702,0.273405048 50.0481092,0.662011386 51.2012563,1.76869398 C52.6627526,3.13303985 52.5233621,4.95357583 52.5233621,6.9346247 L52.5233621,11.6147955 C52.5233621,13.021383 53.1062708,13.6380812 53.6553885,14.3984008 C53.8454695,14.6687327 53.8877096,14.9939797 53.6427085,15.196731 C53.0302316,15.7078347 51.9404438,16.6582305 51.3406387,17.1904518 L51.3364175,17.1819931" id="path28"></path>
                    <path d="M8.93610129,9.86184329 C8.93610129,11.0318852 8.96566627,12.0076247 8.37431165,13.0467251 C7.89699909,13.8915232 7.14090725,14.4110726 6.29611079,14.4110726 C5.14296364,14.4110726 4.47135193,13.5324818 4.47135193,12.2357198 C4.47135193,9.67598829 6.76497277,9.21135081 8.93610129,9.21135081 L8.93610129,9.86184329 M11.9646947,17.1820012 C11.7661679,17.3594088 11.4789348,17.3720807 11.2550642,17.2538111 C10.2582071,16.425911 10.0807979,16.0415291 9.53168024,15.2516446 C7.88432723,16.9327885 6.71851144,17.43544 4.58117417,17.43544 C2.05523217,17.43544 0.0868599893,15.8767917 0.0868599893,12.7552724 C0.0868599893,10.3180334 1.40896579,8.6580087 3.28863657,7.84700494 C4.91909307,7.12892546 7.19581917,7.00220849 8.93610129,6.80368163 L8.93610129,6.4150753 C8.93610129,5.7012203 8.99101321,4.85642385 8.57283867,4.23972567 C8.20534979,3.68638195 7.50417148,3.4582869 6.88746847,3.4582869 C5.74277191,3.4582869 4.72056622,4.04542009 4.47135193,5.26192653 C4.42066289,5.53226327 4.22213604,5.7983739 3.95180252,5.81104576 L1.0372558,5.49846896 C0.792264393,5.44356026 0.52192927,5.24503018 0.58951305,4.86909893 C1.26112637,1.33785081 4.4502311,0.273405048 7.30564463,0.273405048 C8.76713942,0.273405048 10.6763784,0.662011386 11.8295256,1.76869398 C13.291025,3.13303985 13.1516314,4.95357583 13.1516314,6.9346247 L13.1516314,11.6147955 C13.1516314,13.021383 13.7345433,13.6380812 14.2836609,14.3984008 C14.4779633,14.6687327 14.5202033,14.9939797 14.2752119,15.196731 C13.662735,15.7078347 12.5729488,16.6582305 11.9731405,17.1904518 L11.9646947,17.1819931" id="path30"></path>
                </g>
            </g>
        </g>
    </g>
</svg>