<?xml version="1.0" encoding="UTF-8"?>
<svg width="141px" height="22px" viewBox="0 0 141 22" version="1.1" xmlns="http://www.w3.org/2000/svg" xmlns:xlink="http://www.w3.org/1999/xlink">
    <!-- Generator: Sketch 51.3 (57544) - http://www.bohemiancoding.com/sketch -->
    <title>Barnes-Noble-logo</title>
    <desc>Created with Sketch.</desc>
    <defs></defs>
    <g id="Site-Final" stroke="none" stroke-width="1" fill="none" fill-rule="evenodd">
        <g id="Book-Page" transform="translate(-749.000000, -3691.000000)" fill="#999999" fill-rule="nonzero">
            <g id="Also-Available-On" transform="translate(0.000000, 3576.000000)">
                <g id="Barnes-Noble-logo" transform="translate(749.000000, 115.000000)">
                    <path d="M140.344828,17.8584803 L140.344828,20.8706506 L132.57329,20.8706506 L132.57329,0.943985021 L139.796248,0.943985021 L139.796248,3.95615541 L136.001909,3.95615541 L136.001909,9.28537993 L139.384814,9.28537993 L139.384814,12.0658449 L135.956195,12.0658449 L135.956195,17.8584803 L140.344828,17.8584803 Z M122.74458,0.897643938 L126.401775,0.897643938 L126.401775,17.8584803 L130.516118,17.8584803 L130.516118,20.8706506 L122.74458,20.8706506 L122.74458,0.897643938 Z M120.230259,15.1706975 C120.230259,19.3413949 118.401662,20.8706506 115.201617,20.8706506 L110.812984,20.8706506 L110.812984,0.943985021 L115.247332,0.943985021 C118.767382,0.943985021 119.68168,2.98299267 119.68168,6.36589171 C119.68168,8.86831019 118.767382,10.1658605 117.258789,10.2585427 C118.950241,10.2585427 120.275974,11.9731627 120.275974,15.1706975 L120.230259,15.1706975 Z M114.927328,3.26103916 L114.287319,3.26103916 L114.287319,9.05367452 L115.201617,9.05367452 C116.115916,9.05367452 116.253061,8.12685286 116.253061,6.45857388 C116.253061,4.14151974 115.978771,3.21469808 114.881613,3.21469808 L114.927328,3.26103916 Z M115.064473,11.4170697 L114.287319,11.4170697 L114.287319,18.5072554 L115.201617,18.5072554 C116.253061,18.5072554 116.573065,17.8584803 116.573065,14.7999688 C116.573065,12.6219379 116.253061,11.4634108 115.064473,11.4634108 L115.064473,11.4170697 Z M103.452881,21.2413793 C100.389981,21.2413793 98.7899584,19.943829 98.7899584,10.9536589 C98.7899584,2.24153534 100.161406,0.75862069 103.498596,0.75862069 C106.927216,0.75862069 108.207234,2.24153534 108.207234,10.9536589 C108.207234,19.4804182 106.835786,21.2413793 103.498596,21.2413793 L103.452881,21.2413793 Z M104.36718,4.46590732 C104.230035,3.07567483 103.91003,2.75128725 103.452881,2.75128725 C102.904302,2.75128725 102.630012,3.02933375 102.538583,4.46590732 C102.447153,5.8561398 102.447153,7.84880637 102.447153,10.9536589 C102.447153,14.6609455 102.447153,16.051178 102.584297,17.3487284 C102.675727,18.8779841 102.950017,19.0170073 103.498596,19.0170073 C104.09289,19.0170073 104.27575,19.0170073 104.412895,17.3487284 L104.412895,4.41956623 L104.36718,4.46590732 Z M91.1098506,13.5024185 C90.7898461,12.5755968 90.5612715,11.4634108 90.2869819,10.0731783 C90.4698416,12.7609611 90.4698416,13.5024185 90.4698416,15.8658137 L90.4698416,20.9633328 L87.1326519,20.9633328 L87.1326519,1.03666719 L90.4241267,1.03666719 C90.4241267,1.03666719 91.8870044,6.92198471 92.2527238,8.12685286 C92.5727283,9.3780621 92.8470179,10.3512248 92.9384477,11.2780465 C92.8470179,9.28537993 92.8470179,6.92198471 92.8470179,4.92931815 L92.8470179,0.897643938 L96.0470628,0.897643938 L96.0470628,20.8243096 L93.2584522,20.8243096 L91.0641357,13.4097363 L91.1098506,13.5024185 Z M65.8294957,15.6341083 C65.8294957,18.8779841 64.4580478,21.1950382 61.3494328,21.1950382 C58.697967,21.1950382 56.9150848,19.8048057 56.9150848,16.3292245 C56.9150848,15.5414261 56.9150848,14.7999688 57.0979445,14.1975347 L60.2979894,14.1975347 C60.1608447,14.938992 60.0694148,15.4024029 60.0694148,16.2828834 C60.0694148,18.5072554 60.6179939,18.8779841 61.4408626,18.8779841 C62.0351567,18.8779841 62.492306,18.5535965 62.492306,16.3292245 C62.492306,14.382899 61.1208581,12.9463255 59.7494103,11.2317054 C58.2865326,9.56342643 56.77794,7.33905445 56.77794,5.48541114 C56.77794,2.51958184 58.1493878,0.851302855 60.9837134,0.851302855 C63.726609,0.851302855 65.2352016,2.33421751 65.2352016,5.25370573 C65.2352016,5.90248089 65.0523419,6.4122328 64.9609121,6.87564363 L62.0351567,6.87564363 L62.1265865,5.48541114 C62.1265865,3.63176783 61.852297,2.93665158 61.0751432,2.93665158 C60.2522745,2.93665158 60.1608447,3.72444999 60.1608447,5.16102356 C60.1608447,7.01466687 61.5322925,8.40489936 62.7665955,9.88781401 C64.4123329,12.0195038 65.7837807,13.6877828 65.7837807,15.7731315 L65.8294957,15.6341083 Z M47.0863754,0.943985021 L54.4007638,0.943985021 L54.4007638,3.95615541 L50.6064248,3.95615541 L50.6064248,9.28537993 L53.9893294,9.28537993 L53.9893294,12.0658449 L50.6521397,12.0658449 L50.6521397,17.8584803 L54.9950578,17.8584803 L54.9950578,20.8706506 L47.2235202,20.8706506 L47.2235202,0.943985021 L47.0863754,0.943985021 Z M38.8576884,13.4560774 C38.5833989,12.5292557 38.3091093,11.4170697 38.0805347,10.0268373 C38.2633944,12.7146201 38.2633944,13.4560774 38.2633944,15.8194726 L38.2633944,20.9169917 L34.9719196,20.9169917 L34.9719196,0.990326104 L38.2633944,0.990326104 L40.0919915,8.08051178 C40.4577109,9.33172102 40.7320004,10.3048838 40.9148602,11.2317054 C40.8234303,9.23903885 40.7320004,6.87564363 40.7320004,4.88297706 L40.7320004,0.897643938 L43.9320454,0.897643938 L43.9320454,20.8243096 L41.0520049,20.8243096 L38.9034033,13.4097363 L38.8576884,13.4560774 Z M29.0746939,10.6756124 C31.3604403,11.2317054 31.5890149,13.9194882 31.5890149,16.3292245 C31.5890149,18.1828678 31.7261597,19.8974879 31.9547344,20.8706506 L28.2975402,20.8706506 C28.2975402,20.0365112 28.0689655,19.7121236 28.0689655,17.8121392 L28.0689655,15.3097207 C28.0689655,13.6877828 27.5203864,12.5292557 26.3775132,12.2048682 L26.1946535,12.2048682 L26.1946535,20.7779685 L22.5374593,20.7779685 L22.5374593,0.851302855 L27.8861058,0.851302855 C30.308997,0.851302855 32.0004493,2.24153534 32.0004493,5.94882197 C32.0004493,9.00733344 30.6290015,10.3512248 29.0746939,10.5829303 L29.0746939,10.6756124 Z M26.7889475,3.4464035 L26.1489386,3.4464035 L26.1489386,9.14635669 L27.2003819,9.14635669 C28.1146804,9.14635669 28.38897,8.54392261 28.38897,6.82930254 C28.38897,3.81713216 27.9318207,3.40006241 26.7889475,3.4464035 Z M16.3659441,17.6267748 L14.0801977,17.6267748 L13.8059081,20.8706506 L10.743008,20.8706506 L13.6230484,0.804961773 L17.0973829,0.804961773 L20.4345726,20.8243096 L16.7773784,20.8243096 L16.3202291,17.5804338 L16.3659441,17.6267748 Z M15.7259351,11.6024341 C15.6345052,10.6756124 15.2687858,7.7561242 15.2687858,5.8561398 C15.131641,7.84880637 14.8116365,10.6756124 14.8116365,11.556093 L14.3544873,15.4024029 L16.1830844,15.4024029 L15.7259351,11.6024341 Z M9.41727508,15.0780153 C9.41727508,19.2487127 7.58867797,20.7779685 4.38863305,20.7779685 L0,20.7779685 L0,0.851302855 L4.43434797,0.851302855 C7.90868247,0.851302855 8.82298102,2.8903105 8.82298102,6.27320955 C8.82298102,8.77562802 7.90868247,10.0731783 6.40008986,10.1658605 C8.09154218,10.1658605 9.41727508,11.8804806 9.41727508,15.0780153 Z M4.11434348,3.26103916 L3.42861957,3.26103916 L3.42861957,9.05367452 L4.34291812,9.05367452 C5.25721667,9.05367452 5.39436145,8.12685286 5.39436145,6.45857388 C5.39436145,4.14151974 5.16578681,3.21469808 4.02291362,3.21469808 L4.11434348,3.26103916 Z M4.20577333,11.3707287 L3.47433449,11.3707287 L3.47433449,18.4609143 L4.38863305,18.4609143 C5.44007638,18.4609143 5.76008087,17.8121392 5.76008087,14.7536277 C5.76008087,12.5755968 5.44007638,11.4170697 4.25148826,11.4170697 L4.20577333,11.3707287 Z" id="Shape"></path>
                    <path d="M84.9560782,12.9576271 C84.8655191,13.6101695 84.5032829,14.1228814 83.7788105,14.1228814 C82.2845862,14.1228814 83.4618539,11.7923729 82.0581886,11.7923729 C81.2431571,11.7923729 80.6998028,12.5381356 79.7942123,14.4957627 L78.4358265,17.8516949 L78.7075037,18.4576271 C79.6130942,19.7161017 80.4281256,20.6016949 81.4242752,20.6016949 C81.9676295,20.6016949 82.5562633,20.3220339 83.4618539,19.3898305 L83.9146491,20.0423729 C82.9184995,21.3008475 81.6506728,22 80.5186847,22 C79.1602989,22 77.9830313,20.7415254 77.1227203,19.7627119 C75.8548936,21.1610169 74.4059487,22 72.4136496,22 C69.5610395,22 66.9801066,20.1355932 67.6140199,15.940678 C68.1573742,13.4237288 70.0138348,11.7457627 72.1419725,10.3474576 C71.5080591,8.66949153 71.1458229,6.61864407 71.4175001,5.08050847 C71.9155748,1.86440678 74.7229054,0 77.1227203,0 C79.9300509,0 81.1978776,1.95762712 80.7450823,4.19491525 C80.5186847,5.36016949 80.0206099,6.43220339 78.8433422,7.45762712 C77.6207951,8.57627119 75.5832164,9.55508475 74.4512283,10.2542373 C75.1757007,12.1186441 76.2624093,14.2161017 77.8019132,16.9194915 C78.2547084,15.9872881 78.9339013,14.309322 79.6130942,12.9576271 C80.201728,11.559322 81.1525981,10.720339 82.5562633,10.720339 C84.5032829,10.720339 85.0466372,12.1186441 84.9560782,12.9576271 Z M69.7874371,16.4533898 C69.51576,18.1779661 70.5571891,20.5084746 73.2739606,20.5084746 C74.6323464,20.5084746 75.5379369,20.1355932 76.4435274,18.970339 C74.7229054,16.4533898 73.5003582,14.029661 72.5042087,11.6059322 C71.1458229,12.8177966 70.1496733,14.1694915 69.7874371,16.4533898 Z M78.1641494,6.33898305 C78.7527832,5.54661017 78.9339013,4.94067797 79.0697399,4.28813559 C79.3866966,2.61016949 78.4358265,1.49152542 77.0321612,1.49152542 C75.2209802,1.49152542 73.8625944,3.02966102 73.7720354,4.47457627 C73.4550787,6.05932203 73.6361968,7.59745763 74.1342716,9.22881356 C75.2209802,8.57627119 77.4849565,7.13135593 78.2094289,6.33898305 L78.1641494,6.33898305 Z" id="Shape"></path>
                </g>
            </g>
        </g>
    </g>
</svg>